<svg t="1581592912855" class="icon" viewBox="0 0 1024 1024" version="1.1" xmlns="http://www.w3.org/2000/svg" p-id="4277" width="32" height="32"><path d="M512 960.591855c-247.749594 0-448.591855-200.840214-448.591855-448.591855 0-247.749594 200.842261-448.591855 448.591855-448.591855S960.591855 264.249383 960.591855 512C960.591855 759.75164 759.749594 960.591855 512 960.591855zM414.771585 237.056044c-129.511679 0-235.598856 89.473801-235.598856 203.163119 0 65.600067 35.279504 119.472022 94.27413 161.319106l-23.549346 71.841212 82.374102-41.84913c29.454846 5.864568 53.086056 11.939937 82.499969 11.939937 7.404644 0 14.728446-0.336668 21.968337-0.884137-4.577249-15.990183-7.281847-32.69668-7.281847-50.117444 0.041956-104.366999 88.408539-189.075263 200.278419-189.075263 7.655354 0 15.185864 0.590448 22.75833 1.432629C632.108518 308.560588 530.638499 237.056044 414.771585 237.056044zM644.669602 416.258449c-112.11752 0-200.360284 77.875648-200.360284 173.339884 0 95.760994 88.282672 173.339884 200.360284 173.339884 23.465434 0 47.1386-5.948479 70.686922-11.935843l64.608483 35.939537-17.723663-59.733453c47.303352-36.027541 82.582857-83.739193 82.582857-137.611148C844.824201 494.091118 750.551094 416.258449 644.669602 416.258449zM709.282179 559.691185c-11.607362 0-23.422456-11.81407-23.422456-23.877827 0-11.895935 11.773138-23.874757 23.422456-23.874757 17.724687 0 29.496801 11.978822 29.496801 23.874757C738.77898 547.877115 727.006865 559.691185 709.282179 559.691185zM579.686588 559.691185c-11.689227 0-23.548322-11.81407-23.548322-23.877827 0-11.895935 11.859096-23.874757 23.548322-23.874757 17.890462 0 29.496801 11.978822 29.496801 23.874757C609.18339 547.877115 597.577051 559.691185 579.686588 559.691185zM503.096213 398.331147c-17.600867 0-35.320437-11.982916-35.320437-29.867238 0-18.013259 17.678638-29.827329 35.320437-29.827329 17.807574 0 29.496801 11.853979 29.496801 29.827329C532.593014 386.348232 520.903787 398.331147 503.096213 398.331147zM338.221118 398.331147c-17.681708 0-35.489282-11.982916-35.489282-29.867238 0-17.972327 17.807574-29.827329 35.489282-29.827329 17.680684 0 29.41596 11.81407 29.41596 29.827329C367.637078 386.348232 355.901803 398.331147 338.221118 398.331147z" p-id="4278" fill="#707070"></path></svg>